<?xml version='1.0' encoding='UTF-8' standalone='no'?>
<svg
  xmlns:dc="http://purl.org/dc/elements/1.1/"
  xmlns:cc="http://creativecommons.org/ns#"
  xmlns:rdf="http://www.w3.org/1999/02/22-rdf-syntax-ns#"
  xmlns:svg="http://www.w3.org/2000/svg"
  xmlns="http://www.w3.org/2000/svg"
  id="svg32"
  x="0in"
  viewBox="0 0 688.97643 868.0509"
  height="0.86805093in"
  y="0in"
  width="0.68897641in"
  version="1.2">
  <metadata
    id="metadata38">
    <rdf:RDF>
      <cc:Work
        rdf:about="">
        <dc:format>image/svg+xml</dc:format>
        <dc:type
          rdf:resource="http://purl.org/dc/dcmitype/StillImage"
        />
        <dc:title/>
      </cc:Work>
    </rdf:RDF>
  </metadata>
  <defs
    id="defs36"
  />
  <desc
    id="desc2">
    <referenceFile>seeeduino-xiao_1_breadboard.svg</referenceFile>
  </desc>
  <g
    id="breadboard">
    <rect
      id="rect76"
      width="688.97638"
      height="787.40155"
      x="0"
      y="80.649353"
      fill="#333333"
      stroke="none"
      stroke-width="0"
    />
    <rect
      width="13.75"
      height="9.0277796"
      x="-411.99234"
      y="-298.90302"
      id="rect8"
      transform="scale(-1)"
      fill="#666666"
    />
    <rect
      width="1.23611"
      height="7.1111102"
      x="-411.99234"
      y="-298.90302"
      id="rect10"
      transform="scale(-1)"
      fill="#999999"
    />
    <rect
      id="rect207"
      width="433.22034"
      height="466.77963"
      x="128.13986"
      y="369.11252"
      fill="#ececec"
      stroke="#666666"
      stroke-width="10.41666698"
    />
    <rect
      width="13.7639"
      height="9.0277796"
      x="-386.38135"
      y="-298.90302"
      id="rect14"
      transform="scale(-1)"
      fill="#666666"
    />
    <text
      id="text3685"
      font-size="49"
      y="248.34546"
      x="-756.30164"
      transform="rotate(-90)"
      font-family="OCRA"
      fill="#000000"
      stroke-width="1.00000012">SEEED</text>
    <rect
      width="1.23611"
      height="7.1111102"
      x="-386.38135"
      y="-298.90302"
      id="rect16"
      transform="scale(-1)"
      fill="#999999"
    />
    <rect
      width="13.7639"
      height="9.0277796"
      x="-360.81235"
      y="-298.90302"
      id="rect20"
      transform="scale(-1)"
      fill="#666666"
    />
    <rect
      width="1.23611"
      height="7.1111102"
      x="-360.81235"
      y="-298.90302"
      id="rect22"
      transform="scale(-1)"
      fill="#999999"
    />
    <rect
      width="13.75"
      height="9.0277796"
      x="-335.20135"
      y="-298.90302"
      id="rect26"
      transform="scale(-1)"
      fill="#666666"
    />
    <rect
      width="1.2222199"
      height="7.1111102"
      x="-335.20135"
      y="-298.90302"
      id="rect28"
      transform="scale(-1)"
      fill="#999999"
    />
    <rect
      width="13.75"
      height="9.0277796"
      x="-309.61734"
      y="-298.90302"
      id="rect32"
      transform="scale(-1)"
      fill="#666666"
    />
    <rect
      width="1.23611"
      height="7.1111102"
      x="-309.61734"
      y="-298.90302"
      id="rect34"
      transform="scale(-1)"
      fill="#999999"
    />
    <polygon
      transform="rotate(-180,256.58667,149.4515)"
      points="28.6111,268.542 28.6111,5.08333 290.347,5.08333 290.333,265.333 289.556,296.722 30.0556,296.722 "
      id="polygon38"
      fill="#b3b3b3"
    />
    <polygon
      transform="rotate(-180,256.58667,149.4515)"
      points="140.556,247.028 31.5972,247.028 31.5972,294.403 56.4028,294.333 184.847,294.306 "
      id="polygon40"
      fill="#999999"
    />
    <rect
      width="25.430599"
      height="42.236099"
      x="-220.06235"
      y="-201.9586"
      id="rect42"
      transform="scale(-1)"
      fill="#666666"
    />
    <rect
      width="25.4028"
      height="42.236099"
      x="-513.17334"
      y="-201.9586"
      id="rect44"
      transform="scale(-1)"
      fill="#666666"
    />
    <rect
      width="261.73599"
      height="1.80556"
      x="-484.56226"
      y="-293.81967"
      id="rect46"
      transform="scale(-1)"
      fill="#cccccc"
    />
    <rect
      width="142.931"
      height="255.04201"
      x="-425.38165"
      y="-293.81967"
      id="rect48"
      transform="scale(-1)"
      fill="#333333"
    />
    <rect
      width="13.9306"
      height="15.0278"
      x="-501.70117"
      y="-46.291992"
      id="rect50"
      transform="scale(-1)"
      fill="#b3b3b3"
    />
    <rect
      width="8.9166698"
      height="15.0278"
      x="-496.65945"
      y="-46.291992"
      id="rect52"
      transform="scale(-1)"
      fill="#cccccc"
    />
    <rect
      width="13.9028"
      height="15.0278"
      x="-220.07635"
      y="-46.291992"
      id="rect54"
      transform="scale(-1)"
      fill="#b3b3b3"
    />
    <rect
      width="8.9166698"
      height="15.0278"
      x="-220.07635"
      y="-46.291992"
      id="rect56"
      transform="scale(-1)"
      fill="#cccccc"
    />
    <rect
      width="6.625"
      height="9"
      x="-299.28433"
      y="-33.569965"
      id="rect58"
      transform="scale(-1)"
      fill="#f2f2f2"
    />
    <rect
      width="6.6527801"
      height="9"
      x="-328.27032"
      y="-33.569965"
      id="rect62"
      transform="scale(-1)"
      fill="#f2f2f2"
    />
    <rect
      width="6.625"
      height="9"
      x="-357.21536"
      y="-33.569965"
      id="rect66"
      transform="scale(-1)"
      fill="#f2f2f2"
    />
    <rect
      width="6.625"
      height="9"
      x="-386.18735"
      y="-33.569965"
      id="rect70"
      transform="scale(-1)"
      fill="#f2f2f2"
    />
    <rect
      width="6.625"
      height="9"
      x="-415.14554"
      y="-33.569965"
      id="rect74"
      transform="scale(-1)"
      fill="#f2f2f2"
    />
    <rect
      width="1.33333"
      height="9"
      x="-415.14554"
      y="-33.569965"
      id="rect78"
      transform="scale(-1)"
      fill="#808080"
    />
    <rect
      width="1.33333"
      height="9"
      x="-386.18735"
      y="-33.569965"
      id="rect82"
      transform="scale(-1)"
      fill="#808080"
    />
    <rect
      width="1.36111"
      height="9"
      x="-357.21536"
      y="-33.569965"
      id="rect86"
      transform="scale(-1)"
      fill="#808080"
    />
    <rect
      width="1.36111"
      height="9"
      x="-328.25635"
      y="-33.569965"
      id="rect90"
      transform="scale(-1)"
      fill="#808080"
    />
    <rect
      width="1.36111"
      height="9"
      x="-299.27032"
      y="-33.569965"
      id="rect94"
      transform="scale(-1)"
      fill="#808080"
    />
    <path
      d="m 422.27054,21.986 h -7.13889 v 5.5 h -6.625 v -5.5 h -22.3333 v 5.5 h -6.61101 v -5.5 h -22.3333 v 5.5 h -6.625 v -5.5 h -22.3194 v 5.5 h -6.65278 v -5.5 h -22.34752 v 5.5 h -6.625 v -5.5 h -4.486 -3.73611 c -1.09722,0 -2,0.88889 -2,2.02778 v 14.7778 c 0,1.11111 0.875,2.02778 2,2.02778 L 423.36774,40.82 c 1.09722,0 2.02778,-0.88889 2.02778,-2.02778 v -14.7778 c 0,-1.08333 -0.90278,-2.02778 -2.02778,-2.02778 z"
      id="path100"
      fill="#4d4d4d"
    />
    <path
      d="m 487.77054,285.9447 -3.18056,7.875 h -35.1944 c 0,0 31.9722,-1.56944 33.1111,-3.93056 1.1389,-2.36112 -1.52778,-3.94444 -1.52778,-3.94444 z"
      id="path102"
      fill="#cccccc"
    />
    <path
      d="m 220.06234,285.9447 3.18056,7.86111 35.20844,-3e-5 c 0,0 -31.9583,-1.56944 -33.0972,-3.93056 -1.1389,-2.36112 1.51389,-3.93056 1.51389,-3.93056 z"
      id="path104"
      fill="#cccccc"
    />
    <path
      d="M 487.77054,67.125 V 0 l -267.722,0.0833 V 67.125 Z M 226.25634,4.5 h 255.3198 v 47.375 h -255.347 z"
      id="path106"
      fill="#cccccc"
    />
    <path
      d="m 267.13134,285.9447 v -14.8195 h 22.292 v 22.69447 h 6.40278 v -7.86111 l 116.16622,4e-5 v 7.86107 h 7.2921 v -22.7083 l 22.3056,-7e-5 v 14.8334 h 46.1805 V 57.6257 h -267.681 l 8e-4,228.319 z M 419.28444,101.361 V 90.0554 l 22.125,6e-4 v 12.2361 c 5.91667,3.84722 9.83333,10.5556 9.83333,18.1528 0,8.30556 -3.04167,15.3472 -9.83333,19.0139 v 0 62.2222 h -22.1111 v -62.25 c -6.77778,-3.66667 -11.4583,-10.7361 -11.4583,-19.0417 3e-4,-8.2923 4.6663,-15.3753 11.4444,-19.0283 z m -151.2221,0 V 90.0554 h 22.1111 v 12.2361 c 5.91667,3.84722 9.81944,10.5556 9.81944,18.1528 0,8.30556 -3.01389,15.3472 -9.81944,19.0139 v 0 62.2222 h -22.1111 v -62.25 c -6.80556,-3.66667 -11.4722,-10.7361 -11.4722,-19.0417 2e-4,-8.2917 4.6522,-15.3747 11.4722,-19.0277 z"
      id="path108"
      fill="#e6e6e6"
    />
    <polygon
      transform="rotate(-180,256.58667,149.4515)"
      points="46.6667,12.9583 31.0417,241.333 25.4028,241.333 25.4028,12.9583 "
      id="polygon110"
      fill="#f2f2f2"
    />
    <polygon
      transform="rotate(-180,256.58667,149.4515)"
      points="293.111,12.9583 293.111,241.333 285.208,88.8333 277.333,12.9583 "
      id="polygon112"
      fill="#999999"
    />
    <rect
      width="22.111099"
      height="1.80556"
      x="-441.40945"
      y="-201.6669"
      id="rect114"
      transform="scale(-1)"
      fill="#cccccc"
    />
    <rect
      width="22.0972"
      height="1.80556"
      x="-290.14532"
      y="-201.6669"
      id="rect116"
      transform="scale(-1)"
      fill="#cccccc"
    />
    <rect
      width="241.48599"
      height="9.1666698"
      x="-474.64554"
      y="-69.570007"
      id="rect118"
      transform="scale(-1)"
      fill="#b3b3b3"
    />
    <rect
      width="241.48599"
      height="4.3472199"
      x="-474.64554"
      y="-61.916992"
      id="rect120"
      transform="scale(-1)"
      fill="#cccccc"
    />
    <circle
      cx="44.75"
      id="connector0pin"
      r="27.5"
      gorn="0.1.0.1"
      cy="169.79047"
      fill="#ffffff"
      stroke="#ffbf00"
      stroke-width="20"
    />
    <circle
      cx="44.75"
      id="connector1pin"
      r="27.5"
      gorn="0.1.0.3"
      cy="269.79047"
      fill="#ffffff"
      stroke="#ffbf00"
      stroke-width="20"
    />
    <circle
      cx="44.75"
      id="connector2pin"
      r="27.5"
      gorn="0.1.0.5"
      cy="369.79047"
      fill="#ffffff"
      stroke="#ffbf00"
      stroke-width="20"
    />
    <circle
      cx="44.75"
      id="connector3pin"
      r="27.5"
      gorn="0.1.0.7"
      cy="469.79047"
      fill="#ffffff"
      stroke="#ffbf00"
      stroke-width="20"
    />
    <circle
      cx="44.75"
      id="connector4pin"
      r="27.5"
      gorn="0.1.0.9"
      cy="569.79047"
      fill="#ffffff"
      stroke="#ffbf00"
      stroke-width="20"
    />
    <circle
      cx="44.75"
      id="connector5pin"
      r="27.5"
      gorn="0.1.0.11"
      cy="669.79047"
      fill="#ffffff"
      stroke="#ffbf00"
      stroke-width="20"
    />
    <circle
      cx="44.75"
      id="connector6pin"
      r="27.5"
      gorn="0.1.0.13"
      cy="769.79047"
      fill="#ffffff"
      stroke="#ffbf00"
      stroke-width="20"
    />
    <circle
      cx="645.25"
      id="connector7pin"
      r="27.5"
      gorn="0.1.0.14"
      cy="769.79047"
      fill="#ffffff"
      stroke="#ffbf00"
      stroke-width="20"
    />
    <circle
      cx="645.25"
      id="connector8pin"
      r="27.5"
      gorn="0.1.0.12"
      cy="669.79047"
      fill="#ffffff"
      stroke="#ffbf00"
      stroke-width="20"
    />
    <circle
      cx="645.25"
      id="connector9pin"
      r="27.5"
      gorn="0.1.0.10"
      cy="569.79047"
      fill="#ffffff"
      stroke="#ffbf00"
      stroke-width="20"
    />
    <circle
      cx="645.25"
      id="connector10pin"
      r="27.5"
      gorn="0.1.0.8"
      cy="469.79047"
      fill="#ffffff"
      stroke="#ffbf00"
      stroke-width="20"
    />
    <circle
      cx="645.25"
      id="connector11pin"
      r="27.5"
      gorn="0.1.0.6"
      cy="369.79047"
      fill="#ffffff"
      stroke="#ffbf00"
      stroke-width="20"
    />
    <circle
      cx="645.25"
      id="connector12pin"
      r="27.5"
      gorn="0.1.0.4"
      cy="269.79047"
      fill="#ffffff"
      stroke="#ffbf00"
      stroke-width="20"
    />
    <circle
      cx="645.25"
      id="connector13pin"
      r="27.5"
      gorn="0.1.0.2"
      cy="169.79047"
      fill="#ffffff"
      stroke="#ffbf00"
      stroke-width="20"
    />
  </g>
</svg>
