<?xml version="1.0" encoding="utf-8"?>
<!-- Generator: Adobe Illustrator 14.0.0, SVG Export Plug-In . SVG Version: 6.00 Build 43363)  -->
<!DOCTYPE svg PUBLIC "-//W3C//DTD SVG 1.1//EN" "http://www.w3.org/Graphics/SVG/1.1/DTD/svg11.dtd">
<svg version="1.1" xmlns="http://www.w3.org/2000/svg" xmlns:xlink="http://www.w3.org/1999/xlink" x="0px" y="0px"
	 width="595.28px" height="841.89px" viewBox="0 0 595.28 841.89" enable-background="new 0 0 595.28 841.89" xml:space="preserve">
<g id="Calque_1">
	<path display="none" fill="none" stroke="#000000" stroke-width="0.6258" d="M174.543,392.5"/>
	<path fill="#FFFFFF" stroke="#000000" stroke-width="0.6258" stroke-linecap="round" stroke-linejoin="round" d="M192.26,395.364
		c-39.921,0-72.284,32.363-72.284,72.284s32.363,72.283,72.284,72.283s72.283-32.362,72.283-72.283S232.181,395.364,192.26,395.364z
		 M192.26,488.907c-7.396,0-13.909-3.776-17.718-9.506h0.001v-23.507l-0.001-0.001c3.809-5.729,10.322-9.506,17.718-9.506
		c7.338,0,13.896,3.718,17.717,9.373v23.64h0.002C206.17,485.13,199.656,488.907,192.26,488.907z"/>
	<path display="none" fill="none" stroke="#000000" stroke-width="0.6258" d="M209.977,392.5"/>
	<line display="none" fill="none" stroke="#000000" stroke-width="0.6258" x1="174.543" y1="455.895" x2="174.543" y2="479.397"/>
</g>
<g id="Textes" display="none">
	<text transform="matrix(1 0 0 1 158.3965 506.25)" display="inline"><tspan x="0" y="0" font-family="'NexaBold'" font-size="12">Une histoire</tspan><tspan x="-2.694" y="14.4" font-family="'NexaBold'" font-size="12">au bout du fil</tspan></text>
	<text transform="matrix(1 0 0 1 126.9414 488.8535)" display="inline" font-family="'NexaBold'" font-size="6">Le Petit Prince</text>
	<text transform="matrix(1 0 0 1 123.5703 475.7832)" display="inline" font-family="'NexaBold'" font-size="6">Harry Potter</text>
	<text transform="matrix(1 0 0 1 132.8203 436.5742)" display="inline" font-family="'NexaBold'" font-size="6">Le Renard et la Belette</text>
	<text transform="matrix(1 0 0 1 123.5703 462.7139)" display="inline" font-family="'NexaBold'" font-size="6">Blanche Neige</text>
	<text transform="matrix(1 0 0 1 141.687 423.5039)" display="inline" font-family="'NexaBold'" font-size="6">Petit Jaune et Petit Bleu</text>
	<text transform="matrix(1 0 0 1 129.0703 449.6436)" display="inline" font-family="'NexaBold'" font-size="6">Hansel &amp; Gretel</text>
</g>
</svg>
